<?xml version="1.0" encoding="utf-8"?>
<!-- Generator: Adobe Illustrator 25.0.1, SVG Export Plug-In . SVG Version: 6.00 Build 0)  -->
<svg version="1.1" id="Слой_1" xmlns="http://www.w3.org/2000/svg" xmlns:xlink="http://www.w3.org/1999/xlink" x="0px" y="0px"
	 viewBox="0 0 2000 2000" style="enable-background:new 0 0 2000 2000;" xml:space="preserve">
<g>
	<g>
		<path d="M306.4,644.3L163.2,280h168.1l77.2,239.6h1.2L487,280h168.1L508.7,644.3H306.4z"/>
		<path d="M676.8,644.3V118.8h161.9v525.5H676.8z"/>
		<path d="M1003.1,653.4c-40.7,0-73.1-8.9-97.1-26.6c-24.1-17.7-36.1-41.8-36.1-72.2c0-35,16-63.9,47.9-86.5
			c32-22.7,76.2-37,132.6-43.1l79.1-9.1c6.2-0.9,11.3-2.9,15.3-6c3.9-3,5.9-6.9,5.9-11.6c0-15.9-15.8-23.8-47.3-23.8
			c-49.4,0-94.4,19.9-135.1,59.6l-91.5-57.5c19.1-34.6,48.3-61.4,87.5-80.6c39.2-19.1,84.4-28.7,135.4-28.7
			c66,0,117.6,13.4,154.7,40.3c37.1,26.9,55.7,64.1,55.7,111.8v102.3c0,18.2,7.7,27.3,23,27.3c9.5,0,19.5-3.5,29.9-10.5l22.4,82.7
			c-26.1,21.5-63.9,32.2-113.3,32.2c-31.6,0-58.1-7.2-79.7-21.7c-21.6-14.5-34.2-33.2-38-56.1l-1.2-6.3h-0.6
			c-12,25.7-31.3,46.1-57.9,61.3C1068,645.8,1037.5,653.4,1003.1,653.4z M1070.3,545.5c24.1,0,43.2-4.6,57.3-13.7
			c14.1-9.1,21.2-21.4,21.2-36.8V493l-71,7c-30.3,2.8-45.4,11.2-45.4,25.2c0,6.1,3.4,11,10.3,14.7
			C1049.5,543.7,1058.7,545.5,1070.3,545.5z"/>
		<path d="M1530.4,653.4c-45.7,0-82.2-17.3-109.6-51.9c-27.4-34.6-41.1-81-41.1-139.4c0-58.4,13.7-104.9,41.1-139.4
			c27.4-34.6,63.9-51.9,109.6-51.9c31.5,0,59.4,8.6,83.4,25.9c24.1,17.3,41.3,41.3,51.7,72.2h0.6V118.8H1828v525.5h-137l-24.3-88.3
			h-0.6c-10.4,30.8-27.6,54.8-51.7,71.8C1590.4,644.9,1562.4,653.4,1530.4,653.4z M1559.7,505.2c12,11,27.8,16.5,47.3,16.5
			c19.5,0,35.3-5.5,47.3-16.5c12-11,18.1-25.3,18.1-43.1c0-17.7-6-32.1-18.1-43.1c-12-11-27.8-16.5-47.3-16.5
			c-19.5,0-35.3,5.5-47.3,16.5c-12,11-18.1,25.3-18.1,43.1C1541.6,479.9,1547.7,494.3,1559.7,505.2z"/>
		<path d="M222,1417.2c-38.6,0-75.1-3.7-109.6-11.2c-34.5-7.5-62.1-17.5-82.8-30.1l41.7-127.5c40.3,26.2,86.5,39.2,138.8,39.2
			c36.5,0,65.6-7.8,87.2-23.5c21.6-15.6,32.4-36.5,32.4-62.7v-15.4h-0.6c-11.6,19.6-29.6,35.3-53.9,46.9
			c-24.3,11.7-51.2,17.5-80.6,17.5c-46.5,0-83.3-16.3-110.5-49c-27.2-32.7-40.8-77.1-40.8-133.1c0-56.5,13.7-101.4,41.1-134.5
			c27.4-33.2,64.5-49.7,111.4-49.7c31.1,0,58.9,8.8,83.4,26.3c24.5,17.5,41.3,41.2,50.4,71.1h0.6l24.3-89h137v310.4
			c0,65.9-24.2,118.1-72.5,156.6C370.7,1397.9,305,1417.2,222,1417.2z M270.6,1134.8c20.3,0,36.3-5.7,47.9-17.2
			c11.6-11.4,17.4-26.7,17.4-45.9c0-19.1-5.8-34.4-17.4-45.9c-11.6-11.4-27.6-17.2-47.9-17.2c-19.9,0-35.8,5.7-47.6,17.2
			c-11.8,11.5-17.7,26.7-17.7,45.9c0,19.2,5.9,34.5,17.7,45.9C234.8,1129.1,250.7,1134.8,270.6,1134.8z"/>
		<path d="M659.7,1266.5c-39,0-70-12.1-93.1-36.4c-23-24.3-34.4-57.2-33.9-98.8V893.1h161.9v197.6c0,17.3,4,30.7,12.1,40.3
			c8.1,9.6,19.4,14.4,33.9,14.4c17,0,30.3-5.8,39.8-17.5c9.5-11.7,14.3-28,14.3-49V893.1h161.3v364.3H819.7l-21.8-85.5h-0.6
			c-12.9,29.4-31.2,52.6-55.1,69.4C718.3,1258.1,690.9,1266.5,659.7,1266.5z"/>
		<path d="M1297.3,1266.5c-32,0-60-8.5-84.1-25.6c-24.1-17-41.3-41-51.7-71.8h-0.6l-24.3,88.3h-137V731.9h161.9V982h0.6
			c10.4-30.8,27.6-54.9,51.7-72.2c24.1-17.3,51.9-25.9,83.4-25.9c45.7,0,82.2,17.3,109.6,51.9c27.4,34.6,41.1,81,41.1,139.4
			c0,58.4-13.7,104.9-41.1,139.4C1379.5,1249.2,1342.9,1266.5,1297.3,1266.5z M1173.4,1118.3c12,11,27.8,16.5,47.3,16.5
			c19.5,0,35.3-5.5,47.3-16.5c12-11,18.1-25.3,18.1-43.1c0-17.7-6-32.1-18.1-43.1c-12-11-27.8-16.5-47.3-16.5
			c-19.5,0-35.3,5.5-47.3,16.5c-12,11-18.1,25.3-18.1,43.1C1155.3,1093,1161.3,1107.4,1173.4,1118.3z"/>
		<path d="M1595.5,1266.5c-40.7,0-73.1-8.9-97.1-26.6c-24.1-17.7-36.1-41.8-36.1-72.2c0-35,16-63.9,47.9-86.5
			c32-22.7,76.2-37,132.6-43.1l79.1-9.1c6.2-0.9,11.3-2.9,15.3-6c3.9-3,5.9-6.9,5.9-11.6c0-15.9-15.8-23.8-47.3-23.8
			c-49.4,0-94.4,19.9-135.1,59.6l-91.5-57.5c19.1-34.6,48.3-61.4,87.5-80.6c39.2-19.1,84.4-28.7,135.4-28.7
			c66,0,117.6,13.4,154.7,40.3c37.1,26.9,55.7,64.1,55.7,111.8v102.3c0,18.2,7.7,27.3,23,27.3c9.5,0,19.5-3.5,29.9-10.5l22.4,82.7
			c-26.1,21.5-63.9,32.2-113.3,32.2c-31.6,0-58.1-7.2-79.7-21.7c-21.6-14.5-34.2-33.2-38-56.1l-1.2-6.3h-0.6
			c-12,25.7-31.3,46.1-57.9,61.3C1660.5,1258.9,1629.9,1266.5,1595.5,1266.5z M1662.7,1158.6c24.1,0,43.2-4.6,57.3-13.7
			c14.1-9.1,21.2-21.4,21.2-36.8v-2.1l-71,7c-30.3,2.8-45.4,11.2-45.4,25.2c0,6.1,3.4,11,10.3,14.7
			C1641.9,1156.7,1651.1,1158.6,1662.7,1158.6z"/>
		<path d="M626.7,1497c32.4,0,58.9,14,79.7,42c20.8,28,32.6,66.1,35.5,114.2l-142.6,33.6c-0.8-23.3-4.7-41.8-11.5-55.4
			c-6.8-13.5-16.1-20.3-27.7-20.3c-12.5,0-22.3,6.9-29.6,20.7c-7.3,13.8-10.9,32.4-10.9,55.7v182.9H357.8v-364.3h130.7l24.3,75h0.6
			c10.4-26.2,25.7-46.7,46.1-61.7C579.8,1504.5,602.2,1497,626.7,1497z"/>
		<path d="M1009,1883.1c-75.6,0-136.3-17.6-182.1-52.9c-45.9-35.3-68.8-82.6-68.8-141.9c-0.4-57.9,20.1-104.9,61.6-140.8
			c41.5-36,95.9-54,163.1-54c65.2,0,117.1,16.9,156,50.8c38.8,33.9,58.2,79.1,58.2,135.6c0,18.2-2.3,35-6.8,50.4H925.6
			c10.8,29,41.7,43.4,92.8,43.4c49.4,0,88.6-9.3,117.7-28l55.4,84.1c-18.7,15.9-44.4,28.7-77.2,38.5
			C1081.4,1878.2,1046.4,1883.1,1009,1883.1z M923.1,1653.3h112.1c0-16.3-5-29.8-14.9-40.3c-10-10.5-22.6-15.8-38-15.8
			c-15.8,0-29.1,5.1-39.8,15.4C931.6,1622.9,925.2,1636.5,923.1,1653.3z"/>
		<path d="M1328.4,1870.5l-143.2-364.3h168.1l77.2,239.6h1.2l77.2-239.6h168.1l-146.3,364.3H1328.4z"/>
	</g>
	<polygon points="1387,1977.6 1370.2,1986 593.2,21.9 609.9,13.5 	"/>
</g>
</svg>
